<svg xmlns="http://www.w3.org/2000/svg" viewBox="0 0 36 36">
  <!-- Cute crab favicon — same figure as the site banner mascot -->
  <g stroke="#0b0b0b" stroke-width="1.6" stroke-linecap="round">
    <line x1="12" y1="22.5" x2="8.6" y2="25.6"/>
    <line x1="13" y1="24" x2="10" y2="27.4"/>
    <line x1="15" y1="25" x2="12.8" y2="28.4"/>
    <line x1="24" y1="22.5" x2="27.4" y2="25.6"/>
    <line x1="23" y1="24" x2="26" y2="27.4"/>
    <line x1="21" y1="25" x2="23.2" y2="28.4"/>
    <line x1="11.2" y1="17.5" x2="8.3" y2="15.3"/>
    <line x1="24.8" y1="17.5" x2="27.7" y2="15.3"/>
  </g>
  <g fill="#e58f76" stroke="#0b0b0b" stroke-width="1.5" stroke-linejoin="round">
    <path d="M6.8,13.6 L4.2,12.9 A2.7,2.7 0 1 0 6.1,11.0 Z"/>
    <path d="M29.2,13.6 L31.8,12.9 A2.7,2.7 0 1 1 29.9,11.0 Z"/>
    <ellipse cx="18" cy="19.5" rx="7.5" ry="5"/>
  </g>
  <g stroke="#0b0b0b" stroke-width="1.6" stroke-linecap="round">
    <line x1="15.5" y1="15.6" x2="14.8" y2="11.8"/>
    <line x1="20.5" y1="15.6" x2="21.2" y2="11.8"/>
  </g>
  <circle cx="14.7" cy="11" r="1.3" fill="#0b0b0b"/>
  <circle cx="21.3" cy="11" r="1.3" fill="#0b0b0b"/>
  <path d="M15.8,20.6 Q18,22.4 20.2,20.6" fill="none" stroke="#0b0b0b" stroke-width="1.3" stroke-linecap="round"/>
</svg>
